<?xml version="1.0" standalone="no"?>
<!DOCTYPE svg PUBLIC "-//W3C//DTD SVG 20010904//EN"
 "http://www.w3.org/TR/2001/REC-SVG-20010904/DTD/svg10.dtd">
<svg version="1.0" xmlns="http://www.w3.org/2000/svg"
 width="700.000000pt" height="700.000000pt" viewBox="0 0 700.000000 700.000000"
 preserveAspectRatio="xMidYMid meet">
<metadata>
Created by potrace 1.14, written by Peter Selinger 2001-2017
</metadata>
<g transform="translate(0.000000,700.000000) scale(0.100000,-0.100000)"
fill="#000000" stroke="none">
<path d="M3175 6874 c-60 -6 -130 -14 -155 -18 -25 -3 -70 -8 -100 -11 -30 -3
-66 -8 -80 -10 -14 -3 -41 -7 -60 -10 -296 -45 -717 -179 -1033 -328 -525
-248 -939 -610 -1204 -1052 -74 -123 -146 -265 -139 -273 7 -7 5 -9 50 58 20
30 36 50 36 43 0 -6 -29 -71 -64 -144 -83 -171 -159 -394 -191 -554 -40 -206
-48 -292 -48 -505 0 -191 4 -275 13 -291 16 -26 23 12 35 205 3 49 8 103 10
120 2 17 7 54 10 81 22 189 81 418 152 590 36 88 122 258 139 275 14 14 -28
-92 -45 -115 -24 -32 -107 -271 -125 -360 -14 -68 -35 -208 -36 -233 0 -33 21
5 40 71 100 348 345 847 497 1012 10 11 36 42 57 69 52 64 146 160 151 154 5
-4 -21 -39 -69 -91 -52 -59 -147 -187 -199 -270 -44 -71 -167 -308 -167 -322
0 -2 -11 -28 -24 -57 -29 -65 -97 -264 -127 -373 -28 -105 -45 -183 -70 -335
-11 -69 -22 -135 -24 -148 -2 -13 -7 -67 -11 -120 -8 -114 -22 -164 -24 -87
-1 28 -1 106 0 175 2 130 -4 148 -19 64 -31 -167 -34 -487 -6 -729 63 -546
130 -782 317 -1128 84 -155 257 -415 322 -483 6 -7 27 -31 45 -54 19 -23 40
-48 45 -54 75 -81 194 -215 206 -231 16 -20 13 -19 -90 44 -55 33 -153 120
-306 272 -88 87 -164 159 -167 159 -18 0 82 -161 172 -275 70 -90 286 -308
356 -360 30 -22 55 -43 55 -48 0 -9 -52 17 -92 44 -35 25 -46 24 -22 -2 81
-91 405 -306 729 -484 149 -82 468 -245 479 -245 3 0 30 -11 61 -25 281 -129
698 -235 1025 -260 94 -7 481 -7 575 0 174 13 207 17 316 40 448 93 858 279
1230 560 56 43 118 92 138 109 111 98 145 130 231 216 101 101 220 232 286
315 21 28 41 52 44 55 10 9 106 143 147 205 244 365 415 839 422 1174 8 407
-319 705 -689 627 -141 -30 -224 -87 -272 -184 -30 -64 -29 -144 5 -249 35
-107 37 -119 42 -243 13 -278 16 -323 21 -331 3 -5 15 -2 27 6 12 8 25 15 30
15 7 0 0 -127 -8 -140 -2 -3 -6 -24 -9 -46 -10 -63 -14 -83 -32 -143 -10 -31
-18 -61 -20 -67 -4 -22 -77 -182 -116 -254 -44 -83 -87 -144 -95 -136 -3 3 -1
11 4 18 10 12 63 158 63 172 0 16 -22 -1 -105 -78 -49 -47 -92 -83 -94 -80 -3
2 32 57 76 122 90 131 170 277 206 380 28 76 41 142 29 142 -4 0 -28 -35 -52
-77 -48 -86 -90 -146 -97 -139 -3 2 4 31 15 63 18 50 34 112 33 128 0 2 4 18
9 35 14 50 -3 34 -39 -38 -104 -204 -388 -583 -602 -803 -175 -178 -420 -332
-729 -457 -125 -50 -370 -132 -396 -132 -8 0 -14 -4 -14 -8 0 -13 234 -4 323
14 218 41 317 74 502 164 144 70 217 113 324 188 69 49 78 41 24 -19 -191
-211 -605 -422 -1037 -529 -299 -74 -465 -94 -776 -94 -267 0 -389 13 -583 64
-299 77 -666 237 -909 395 -103 68 -123 83 -230 184 -38 35 -76 70 -86 78 -43
36 23 -8 135 -89 68 -48 127 -88 132 -88 5 0 11 -3 13 -8 6 -15 144 -95 253
-147 102 -49 265 -115 282 -115 4 0 -90 65 -208 144 -268 178 -372 253 -522
374 l-118 95 32 31 c61 60 139 173 194 280 20 39 312 431 431 579 110 136 144
170 373 367 36 30 159 150 275 266 116 116 275 265 352 332 122 104 221 194
334 302 72 70 196 173 285 239 55 41 127 97 160 125 51 43 310 271 325 286 3
3 55 50 115 105 61 55 112 102 115 105 14 14 220 201 249 226 19 16 41 36 49
44 39 38 86 70 104 70 10 0 30 -11 43 -24 29 -29 27 -42 -30 -161 -38 -79
-120 -207 -361 -562 -35 -52 -64 -97 -64 -99 0 -3 -8 -17 -18 -32 -65 -94
-336 -572 -329 -578 3 -3 42 54 87 125 80 128 100 154 100 130 0 -25 -75 -178
-125 -254 -29 -44 -73 -112 -98 -150 -25 -39 -57 -83 -72 -99 -17 -18 -24 -34
-19 -45 18 -43 2 -95 -50 -166 -44 -59 -69 -127 -76 -204 -9 -91 -16 -108
-116 -282 -73 -127 -77 -137 -76 -194 0 -33 0 -142 1 -242 l1 -181 39 -40
c108 -109 348 -117 646 -22 190 61 390 142 455 186 88 59 291 234 428 371 109
109 113 114 106 146 -4 17 -10 56 -13 85 l-6 53 -130 -92 c-156 -112 -353
-239 -370 -239 -17 0 -30 18 -43 60 -31 97 -27 110 74 282 86 143 102 181 113
264 8 53 26 100 80 209 81 161 161 310 200 375 15 25 37 70 50 100 13 30 51
93 85 140 35 47 78 107 97 135 19 27 37 54 42 60 4 5 31 42 59 80 28 39 63 84
77 101 14 17 33 40 41 50 53 67 150 185 180 219 19 22 51 60 70 85 19 24 47
58 61 75 54 63 69 82 139 173 39 51 74 90 79 88 4 -3 16 -23 27 -45 10 -23 22
-41 27 -41 4 0 7 -4 7 -10 0 -5 14 -31 31 -57 27 -42 30 -44 24 -18 -14 62
-129 315 -200 440 -42 75 -134 211 -202 300 -65 84 -173 205 -278 311 -162
162 -174 177 -105 128 62 -43 220 -198 297 -289 175 -209 368 -506 507 -782
69 -139 70 -121 1 62 -46 123 -144 325 -206 425 -25 41 -52 86 -59 100 l-13
25 28 -25 c43 -40 137 -167 189 -257 26 -46 52 -85 57 -88 25 -16 -104 267
-162 352 -16 24 -29 46 -29 49 0 15 -164 229 -260 339 -75 87 -329 334 -404
394 -260 207 -617 401 -926 504 -83 28 -248 73 -294 81 -16 3 -52 10 -80 15
-63 13 -191 30 -271 36 -33 3 -85 7 -115 10 -108 11 -136 14 -210 21 -123 11
-417 10 -535 -2z m715 -398 c95 -11 146 -18 210 -30 78 -15 107 -20 185 -38
124 -27 367 -101 478 -144 128 -50 317 -144 407 -201 224 -142 591 -439 563
-456 -4 -3 -34 -8 -66 -11 -111 -12 -155 -28 -328 -115 -293 -148 -463 -259
-879 -576 -36 -28 -67 -52 -70 -55 -3 -3 -41 -35 -85 -70 -178 -144 -423 -355
-545 -470 -9 -8 -61 -56 -116 -106 -54 -51 -117 -109 -139 -129 -146 -136
-377 -305 -416 -305 -14 0 -19 7 -19 30 0 37 357 749 427 851 75 110 74 109
69 169 -21 225 -146 338 -411 369 -86 11 -617 7 -634 -4 -29 -17 -355 -486
-778 -1119 -119 -178 -142 -216 -129 -216 2 0 56 64 120 143 132 162 138 169
191 217 l38 35 -28 -50 c-45 -79 -419 -623 -478 -695 -41 -50 -338 -507 -402
-620 -126 -220 -159 -273 -171 -277 -16 -5 -93 266 -129 457 -27 145 -41 253
-50 400 -6 91 -6 408 -1 469 3 24 7 74 11 110 3 36 8 78 10 92 3 14 7 41 9 60
6 48 35 184 52 249 9 30 17 62 19 70 21 93 98 288 166 423 63 126 59 119 161
271 156 235 379 477 595 646 43 34 86 67 95 75 148 120 443 286 663 373 124
49 317 109 408 128 25 5 225 41 277 49 19 3 36 8 39 10 5 6 623 -3 681 -9z
m-2145 -5411 c88 -43 192 -92 230 -110 39 -18 104 -48 145 -68 172 -81 271
-127 275 -127 2 0 38 -16 82 -36 194 -90 263 -123 263 -127 0 -3 -28 4 -62 15
-109 35 -322 98 -332 98 -35 0 152 -102 279 -152 79 -32 358 -107 455 -123 19
-3 53 -10 75 -15 22 -5 56 -12 75 -15 19 -3 53 -10 75 -15 22 -5 54 -11 72
-14 17 -3 42 -10 55 -16 22 -9 -53 -7 -152 5 -19 2 -64 7 -100 11 -36 3 -72 8
-80 9 -8 2 -44 6 -80 10 -147 16 -330 81 -595 211 -136 67 -196 99 -308 163
-102 57 -531 353 -544 373 -3 6 -2 9 3 6 5 -3 81 -41 169 -83z"/>
<path d="M2025 887 c-17 -13 -16 -15 16 -39 84 -62 104 -34 23 34 -17 15 -23
16 -39 5z"/>
<path d="M151 2561 c-7 -5 -16 -31 -19 -59 -7 -78 34 -168 141 -312 56 -75
134 -156 142 -148 11 10 -194 476 -226 514 -13 16 -19 17 -38 5z"/>
<path d="M517 1993 c-15 -14 -6 -53 14 -63 24 -14 49 2 49 31 0 26 -46 49 -63
32z"/>
<path d="M520 1866 c0 -24 64 -101 87 -104 47 -7 2 72 -59 104 -24 13 -28 13
-28 0z"/>
<path d="M524 1679 c9 -46 98 -175 221 -319 102 -119 398 -392 557 -513 334
-254 777 -455 1158 -527 224 -41 226 -40 55 35 -209 91 -599 291 -774 397 -34
21 -64 38 -66 38 -14 0 -321 201 -410 268 -61 47 -217 179 -291 249 -67 62
-286 267 -304 283 -31 30 -141 120 -147 120 -3 0 -3 -14 1 -31z"/>
</g>
</svg>
