<svg width="500pt" height="500pt" viewBox="0 0 500 500">
  <g transform="translate(0,500) scale(0.1,-0.1)" fill="currentColor" stroke="none">
    <path d="M2255 4909 c-38 -5 -111 -13 -162 -19 -327 -36 -738 -174 -1026 -344 -273 -161 -495 -368 -649 -606 -59 -90 -142 -249 -135 -256 2 -3 19 18 37 46 18 28 34 49 36 47 2 -2 -14 -37 -36 -78 -84 -161 -145 -355 -176 -564 -18 -125 -17 -426 2 -445 9 -9 13 20 19 112 16 296 73 522 187 741 22 43 43 76 45 73 2 -2 -13 -39 -35 -82 -52 -103 -98 -251 -107 -339 -4 -38 -9 -78 -11 -87 -3 -10 -1 -18 3 -18 5 0 15 24 22 53 44 174 182 483 289 642 60 90 205 255 224 255 5 0 -18 -30 -51 -66 -165 -180 -302 -454 -382 -764 -32 -124 -68 -345 -70 -425 0 -27 -5 -59 -10 -70 -6 -13 -8 27 -6 117 1 75 1 136 0 134 -13 -13 -33 -197 -33 -308 0 -151 35 -457 71 -624 67 -310 263 -653 539 -946 50 -54 89 -98 85 -98 -4 0 -39 21 -78 46 -46 29 -121 96 -205 181 -73 75 -134 134 -136 132 -7 -7 64 -120 129 -204 66 -84 195 -213 266 -264 55 -40 31 -40 -27 -1 -72 50 -50 18 34 -49 106 -85 283 -196 497 -313 381 -207 609 -289 961 -345 166 -26 549 -23 704 5 463 85 865 304 1216 663 266 273 446 553 543 844 117 351 102 570 -51 727 -95 98 -243 139 -378 104 -93 -24 -141 -56 -173 -114 -34 -63 -34 -108 0 -203 23 -65 27 -93 30 -229 5 -182 6 -189 31 -166 10 9 21 16 23 16 11 0 -13 -162 -36 -244 -27 -93 -107 -260 -150 -311 l-25 -30 24 55 c13 30 27 69 30 87 7 30 4 28 -64 -38 -39 -38 -75 -69 -80 -69 -5 0 15 32 44 70 100 133 186 313 186 387 0 23 -8 14 -40 -47 -22 -41 -49 -83 -60 -94 -20 -20 -20 -20 -1 30 18 47 42 154 35 154 -2 0 -18 -28 -35 -62 -70 -140 -246 -376 -412 -553 -164 -176 -429 -321 -777 -424 l-65 -19 81 -1 c102 -1 244 23 359 61 108 36 284 124 363 182 81 60 86 62 74 39 -19 -35 -119 -122 -206 -178 -203 -133 -514 -239 -821 -282 -176 -24 -445 -22 -598 5 -160 29 -362 99 -542 187 -185 91 -285 157 -390 258 l-80 78 100 -74 c126 -93 229 -156 330 -203 76 -35 194 -79 183 -69 -2 3 -63 43 -134 89 -191 125 -292 197 -388 277 l-87 71 49 52 c26 28 68 87 91 132 45 84 54 96 257 361 143 186 173 217 296 316 51 40 161 145 243 232 83 87 186 185 230 218 44 34 145 124 225 202 92 89 181 164 242 205 64 43 206 165 423 365 180 165 334 304 342 308 22 13 61 0 68 -24 4 -13 -5 -45 -28 -92 -33 -70 -67 -123 -249 -387 -47 -69 -113 -176 -147 -238 -34 -62 -87 -154 -117 -204 -30 -49 -53 -93 -50 -95 4 -5 18 16 107 161 17 26 32 46 34 44 9 -8 -57 -154 -84 -188 -16 -20 -43 -61 -61 -93 -18 -32 -46 -71 -62 -88 -24 -24 -28 -32 -18 -44 15 -18 6 -48 -31 -103 -50 -74 -62 -104 -60 -155 1 -52 -10 -77 -94 -222 l-46 -80 3 -172 3 -172 30 -31 c65 -68 229 -78 409 -25 103 30 259 87 332 121 87 41 442 363 427 387 -4 7 -10 34 -13 61 l-5 48 -85 -62 c-120 -87 -241 -166 -267 -174 -20 -6 -24 -1 -39 50 -15 53 -15 58 2 97 11 23 37 69 58 102 55 85 76 134 76 182 0 34 19 79 96 225 52 100 103 193 113 207 10 14 24 43 30 63 7 21 28 57 48 80 19 23 63 85 98 137 35 53 141 188 236 301 95 113 195 235 222 273 27 37 51 67 53 67 2 0 24 -35 49 -77 25 -43 45 -73 45 -67 0 23 -72 191 -121 283 -97 181 -230 352 -401 517 -87 82 -101 100 -63 74 177 -118 427 -446 584 -763 24 -48 45 -86 48 -84 2 3 -17 58 -42 123 -48 122 -115 255 -168 332 -40 60 -28 63 20 5 54 -66 82 -107 120 -178 38 -69 42 -64 12 15 -65 172 -198 366 -387 561 -133 138 -224 215 -372 311 -305 199 -621 310 -960 338 -74 6 -174 15 -221 20 -101 12 -305 11 -404 -1z m610 -294 c325 -51 606 -148 825 -282 147 -91 424 -312 409 -327 -3 -4 -37 -9 -75 -12 -59 -6 -89 -16 -199 -72 -71 -35 -168 -88 -215 -117 -270 -168 -670 -485 -984 -781 -93 -87 -196 -181 -230 -208 -78 -62 -175 -126 -193 -126 -27 0 -11 49 57 180 39 74 104 203 144 285 40 83 90 170 111 195 36 43 37 47 32 103 -7 77 -47 157 -95 190 -88 59 -211 78 -461 70 l-186 -6 -31 -32 c-29 -31 -611 -884 -621 -912 -12 -30 10 -7 85 90 44 56 99 120 122 142 l43 40 -27 -50 c-15 -27 -70 -111 -123 -185 -332 -466 -440 -629 -555 -839 -37 -69 -69 -118 -72 -110 -92 288 -128 509 -128 794 -1 506 153 925 469 1280 310 348 703 582 1126 670 67 14 158 30 202 35 114 13 451 4 570 -15z m-1295 -4008 c113 -52 249 -114 303 -137 53 -24 96 -45 94 -47 -2 -2 -68 17 -146 43 -78 25 -145 44 -148 41 -7 -8 104 -70 187 -104 90 -37 217 -69 449 -114 96 -18 169 -35 163 -37 -23 -7 -340 28 -413 47 -136 35 -415 166 -599 282 -104 66 -338 228 -346 240 -3 5 53 -20 123 -55 70 -35 220 -107 333 -159z"/>
    <path d="M1440 625 c0 -15 55 -48 71 -43 15 5 -37 58 -56 58 -8 0 -15 -7 -15 -15z"/>
    <path d="M101 1821 c-16 -29 -13 -64 8 -120 28 -74 191 -280 191 -241 0 12 -107 257 -148 339 -21 42 -37 49 -51 22z"/>
    <path d="M363 1414 c-3 -8 2 -23 11 -32 15 -15 17 -15 33 0 13 14 14 20 3 32 -16 20 -39 20 -47 0z"/>
    <path d="M370 1334 c0 -15 41 -72 56 -78 31 -12 28 26 -4 56 -31 26 -52 36 -52 22z"/>
    <path d="M370 1207 c0 -27 78 -140 163 -237 153 -174 398 -382 573 -486 198 -118 442 -216 619 -249 50 -9 107 -20 128 -25 59 -13 43 3 -36 34 -105 42 -381 181 -537 271 -307 177 -416 257 -635 465 -167 159 -258 240 -269 240 -3 0 -6 -6 -6 -13z"/>
  </g>
</svg>
